<svg width="219" height="41" viewBox="0 0 219 41" fill="none" xmlns="http://www.w3.org/2000/svg">
<path d="M15.248 34.064C16.6667 34.064 17.824 33.8587 18.72 33.448C19.6533 33 20.3627 32.4213 20.848 31.712C21.3707 30.9653 21.7253 30.1253 21.912 29.192C22.0987 28.2213 22.192 27.232 22.192 26.224V25.216H29.584V26.224C29.584 30.8907 28.352 34.4933 25.888 37.032C23.4613 39.5333 19.9147 40.784 15.248 40.784C10.768 40.784 7.22133 39.4213 4.608 36.696C1.99467 33.9707 0.688 29.9947 0.688 24.768V16.032C0.688 13.5307 1.024 11.2907 1.696 9.312C2.368 7.296 3.33867 5.616 4.608 4.272C5.87733 2.89067 7.408 1.84533 9.2 1.136C10.992 0.389331 13.008 0.0159974 15.248 0.0159974C17.5627 0.0159974 19.616 0.351998 21.408 1.024C23.2 1.696 24.6933 2.66666 25.888 3.936C27.12 5.20533 28.0347 6.736 28.632 8.528C29.2667 10.32 29.584 12.336 29.584 14.576V15.584H22.192V14.576C22.192 13.6427 22.08 12.7093 21.856 11.776C21.632 10.8427 21.2587 10.0027 20.736 9.256C20.2133 8.50933 19.504 7.912 18.608 7.464C17.712 6.97866 16.592 6.736 15.248 6.736C14.016 6.736 12.952 6.97866 12.056 7.464C11.16 7.912 10.4133 8.54667 9.816 9.368C9.21867 10.152 8.77067 11.0853 8.472 12.168C8.21067 13.2133 8.08 14.3147 8.08 15.472V25.328C8.08 26.5973 8.21067 27.7733 8.472 28.856C8.73333 29.9013 9.144 30.816 9.704 31.6C10.264 32.384 10.992 33 11.888 33.448C12.8213 33.8587 13.9413 34.064 15.248 34.064ZM52.1331 35.968C51.3864 37.7227 50.3411 38.9733 48.9971 39.72C47.6531 40.4293 46.0851 40.784 44.2931 40.784C42.6131 40.784 41.0264 40.4667 39.5331 39.832C38.0771 39.1973 36.7891 38.264 35.6691 37.032C34.5491 35.8 33.6531 34.3067 32.9811 32.552C32.3464 30.7973 32.0291 28.8 32.0291 26.56V25.664C32.0291 23.4613 32.3464 21.4827 32.9811 19.728C33.6157 17.9733 34.4744 16.48 35.5571 15.248C36.6397 14.016 37.8904 13.0827 39.3091 12.448C40.7651 11.776 42.3144 11.44 43.9571 11.44C45.9357 11.44 47.5224 11.776 48.7171 12.448C49.9491 13.12 50.9197 14.1653 51.6291 15.584H52.6371V12.224H59.6931V31.6C59.6931 32.72 60.1971 33.28 61.2051 33.28H62.2691V40H57.4531C56.1837 40 55.1384 39.6267 54.3171 38.88C53.5331 38.1333 53.1411 37.1627 53.1411 35.968H52.1331ZM45.8611 34.064C47.9144 34.064 49.5571 33.392 50.7891 32.048C52.0211 30.6667 52.6371 28.8 52.6371 26.448V25.776C52.6371 23.424 52.0211 21.576 50.7891 20.232C49.5571 18.8507 47.9144 18.16 45.8611 18.16C43.8077 18.16 42.1651 18.8507 40.9331 20.232C39.7011 21.576 39.0851 23.424 39.0851 25.776V26.448C39.0851 28.8 39.7011 30.6667 40.9331 32.048C42.1651 33.392 43.8077 34.064 45.8611 34.064ZM64.6021 12.224H76.3621V16.256H77.3701C77.8928 14.7253 78.7701 13.5493 80.0021 12.728C81.2715 11.8693 82.7835 11.44 84.5381 11.44C87.3008 11.44 89.5221 12.3173 91.2021 14.072C92.8821 15.7893 93.7221 18.4213 93.7221 21.968V23.2L86.4421 23.872V23.088C86.4421 21.5573 86.0501 20.344 85.2661 19.448C84.4821 18.5147 83.3061 18.048 81.7381 18.048C80.1701 18.048 78.9381 18.5893 78.0421 19.672C77.1461 20.7547 76.6981 22.304 76.6981 24.32V33.28H83.0821V40H63.9301V33.28H69.6421V18.944H64.6021V12.224ZM103.951 28.408C103.989 29.2293 104.175 29.9947 104.511 30.704C104.885 31.376 105.37 31.9733 105.967 32.496C106.602 32.9813 107.311 33.3733 108.095 33.672C108.917 33.9333 109.775 34.064 110.671 34.064C112.426 34.064 113.77 33.7653 114.703 33.168C115.637 32.5333 116.309 31.7867 116.719 30.928L122.767 34.288C122.431 34.9973 121.965 35.744 121.367 36.528C120.77 37.2747 119.986 37.9653 119.015 38.6C118.082 39.2347 116.925 39.7573 115.543 40.168C114.199 40.5787 112.613 40.784 110.783 40.784C108.693 40.784 106.789 40.448 105.071 39.776C103.354 39.104 101.861 38.1333 100.591 36.864C99.3592 35.5947 98.3885 34.0453 97.6792 32.216C97.0072 30.3867 96.6712 28.3147 96.6712 26V25.664C96.6712 23.536 97.0259 21.5947 97.7352 19.84C98.4819 18.0853 99.4899 16.592 100.759 15.36C102.029 14.128 103.503 13.176 105.183 12.504C106.901 11.7947 108.73 11.44 110.671 11.44C113.061 11.44 115.114 11.8693 116.831 12.728C118.549 13.5493 119.967 14.6133 121.087 15.92C122.207 17.1893 123.029 18.608 123.551 20.176C124.074 21.7067 124.335 23.2 124.335 24.656V28.408H103.951ZM110.615 17.824C108.823 17.824 107.367 18.2907 106.247 19.224C105.127 20.12 104.399 21.1653 104.063 22.36H117.167C116.943 21.0533 116.234 19.9707 115.039 19.112C113.882 18.2533 112.407 17.824 110.615 17.824ZM135.74 28.408C135.778 29.2293 135.964 29.9947 136.3 30.704C136.674 31.376 137.159 31.9733 137.756 32.496C138.391 32.9813 139.1 33.3733 139.884 33.672C140.706 33.9333 141.564 34.064 142.46 34.064C144.215 34.064 145.559 33.7653 146.492 33.168C147.426 32.5333 148.098 31.7867 148.508 30.928L154.556 34.288C154.22 34.9973 153.754 35.744 153.156 36.528C152.559 37.2747 151.775 37.9653 150.804 38.6C149.871 39.2347 148.714 39.7573 147.332 40.168C145.988 40.5787 144.402 40.784 142.572 40.784C140.482 40.784 138.578 40.448 136.86 39.776C135.143 39.104 133.65 38.1333 132.38 36.864C131.148 35.5947 130.178 34.0453 129.468 32.216C128.796 30.3867 128.46 28.3147 128.46 26V25.664C128.46 23.536 128.815 21.5947 129.524 19.84C130.271 18.0853 131.279 16.592 132.548 15.36C133.818 14.128 135.292 13.176 136.972 12.504C138.69 11.7947 140.519 11.44 142.46 11.44C144.85 11.44 146.903 11.8693 148.62 12.728C150.338 13.5493 151.756 14.6133 152.876 15.92C153.996 17.1893 154.818 18.608 155.34 20.176C155.863 21.7067 156.124 23.2 156.124 24.656V28.408H135.74ZM142.404 17.824C140.612 17.824 139.156 18.2907 138.036 19.224C136.916 20.12 136.188 21.1653 135.852 22.36H148.956C148.732 21.0533 148.023 19.9707 146.828 19.112C145.671 18.2533 144.196 17.824 142.404 17.824ZM159.969 12.224H171.729V16.256H172.737C173.26 14.7253 174.137 13.5493 175.369 12.728C176.639 11.8693 178.151 11.44 179.905 11.44C182.668 11.44 184.889 12.3173 186.569 14.072C188.249 15.7893 189.089 18.4213 189.089 21.968V23.2L181.809 23.872V23.088C181.809 21.5573 181.417 20.344 180.633 19.448C179.849 18.5147 178.673 18.048 177.105 18.048C175.537 18.048 174.305 18.5893 173.409 19.672C172.513 20.7547 172.065 22.304 172.065 24.32V33.28H178.449V40H159.297V33.28H165.009V18.944H159.969V12.224ZM201.95 20.064C201.95 20.96 202.417 21.6133 203.35 22.024C204.284 22.3973 205.982 22.7147 208.446 22.976C211.284 23.2747 213.598 24.1333 215.39 25.552C217.182 26.9333 218.078 28.8747 218.078 31.376V31.712C218.078 34.4747 217.07 36.6773 215.054 38.32C213.038 39.9627 210.201 40.784 206.542 40.784C204.377 40.784 202.529 40.504 200.998 39.944C199.468 39.384 198.198 38.6933 197.19 37.872C196.182 37.0133 195.398 36.08 194.838 35.072C194.316 34.0267 193.961 33.0187 193.774 32.048L200.27 29.92C200.569 31.1147 201.185 32.16 202.118 33.056C203.089 33.952 204.564 34.4 206.542 34.4C208.297 34.4 209.492 34.1387 210.126 33.616C210.798 33.056 211.134 32.4587 211.134 31.824C211.134 31.4507 211.041 31.1147 210.854 30.816C210.705 30.48 210.406 30.1813 209.958 29.92C209.51 29.6213 208.894 29.3787 208.11 29.192C207.364 29.0053 206.412 28.856 205.254 28.744C202.118 28.4827 199.617 27.68 197.75 26.336C195.921 24.9547 195.006 22.9387 195.006 20.288V19.952C195.006 18.5707 195.305 17.3573 195.902 16.312C196.5 15.2667 197.284 14.3893 198.254 13.68C199.225 12.9333 200.345 12.3733 201.614 12C202.884 11.6267 204.19 11.44 205.534 11.44C207.289 11.44 208.801 11.664 210.07 12.112C211.377 12.5227 212.478 13.0827 213.374 13.792C214.27 14.464 214.998 15.2293 215.558 16.088C216.118 16.9093 216.548 17.712 216.846 18.496L210.462 21.072C210.126 20.064 209.548 19.28 208.726 18.72C207.905 18.1227 206.841 17.824 205.534 17.824C204.34 17.824 203.444 18.048 202.846 18.496C202.249 18.9067 201.95 19.4293 201.95 20.064Z" fill="white"/>
</svg>
