<svg width="280" height="43" viewBox="0 0 280 43" fill="none" xmlns="http://www.w3.org/2000/svg">
<path d="M0.592 2.8H7.984V34.944H25.792V42H0.592V2.8ZM59.3731 28.448C59.3731 30.7627 58.9811 32.816 58.1971 34.608C57.4131 36.3627 56.3491 37.856 55.0051 39.088C53.6611 40.2827 52.1117 41.1973 50.3571 41.832C48.6397 42.4667 46.8291 42.784 44.9251 42.784C43.0211 42.784 41.1917 42.4667 39.4371 41.832C37.7197 41.1973 36.1891 40.2827 34.8451 39.088C33.5011 37.856 32.4371 36.3627 31.6531 34.608C30.8691 32.816 30.4771 30.7627 30.4771 28.448V27.776C30.4771 25.4987 30.8691 23.4827 31.6531 21.728C32.4371 19.936 33.5011 18.424 34.8451 17.192C36.1891 15.96 37.7197 15.0267 39.4371 14.392C41.1917 13.7573 43.0211 13.44 44.9251 13.44C46.8291 13.44 48.6397 13.7573 50.3571 14.392C52.1117 15.0267 53.6611 15.96 55.0051 17.192C56.3491 18.424 57.4131 19.936 58.1971 21.728C58.9811 23.4827 59.3731 25.4987 59.3731 27.776V28.448ZM44.9251 36.064C45.9331 36.064 46.8851 35.896 47.7811 35.56C48.6771 35.224 49.4611 34.7387 50.1331 34.104C50.8051 33.4693 51.3277 32.704 51.7011 31.808C52.1117 30.8747 52.3171 29.8293 52.3171 28.672V27.552C52.3171 26.3947 52.1117 25.368 51.7011 24.472C51.3277 23.5387 50.8051 22.7547 50.1331 22.12C49.4611 21.4853 48.6771 21 47.7811 20.664C46.8851 20.328 45.9331 20.16 44.9251 20.16C43.9171 20.16 42.9651 20.328 42.0691 20.664C41.1731 21 40.3891 21.4853 39.7171 22.12C39.0451 22.7547 38.5037 23.5387 38.0931 24.472C37.7197 25.368 37.5331 26.3947 37.5331 27.552V28.672C37.5331 29.8293 37.7197 30.8747 38.0931 31.808C38.5037 32.704 39.0451 33.4693 39.7171 34.104C40.3891 34.7387 41.1731 35.224 42.0691 35.56C42.9651 35.896 43.9171 36.064 44.9251 36.064ZM91.0501 31.808C90.4155 35.0933 88.9035 37.744 86.5141 39.76C84.1621 41.776 81.0075 42.784 77.0501 42.784C74.9968 42.784 73.0741 42.4667 71.2821 41.832C69.5275 41.1973 67.9968 40.2827 66.6901 39.088C65.3835 37.8933 64.3568 36.4187 63.6101 34.664C62.8635 32.9093 62.4901 30.912 62.4901 28.672V28C62.4901 25.76 62.8635 23.744 63.6101 21.952C64.3568 20.16 65.3835 18.6293 66.6901 17.36C68.0341 16.0907 69.5835 15.12 71.3381 14.448C73.1301 13.776 75.0341 13.44 77.0501 13.44C80.9328 13.44 84.0688 14.448 86.4581 16.464C88.8848 18.48 90.4155 21.1307 91.0501 24.416L84.1061 26.208C83.8821 24.5653 83.1728 23.1467 81.9781 21.952C80.7835 20.7573 79.1035 20.16 76.9381 20.16C75.9301 20.16 74.9781 20.3467 74.0821 20.72C73.1861 21.0933 72.4021 21.6347 71.7301 22.344C71.0581 23.016 70.5168 23.856 70.1061 24.864C69.7328 25.8347 69.5461 26.936 69.5461 28.168V28.504C69.5461 29.736 69.7328 30.8373 70.1061 31.808C70.5168 32.7413 71.0581 33.5253 71.7301 34.16C72.4021 34.7947 73.1861 35.28 74.0821 35.616C74.9781 35.9147 75.9301 36.064 76.9381 36.064C79.1035 36.064 80.7461 35.5227 81.8661 34.44C83.0235 33.3573 83.7701 31.9013 84.1061 30.072L91.0501 31.808ZM113.711 37.968C112.965 39.7227 111.919 40.9733 110.575 41.72C109.231 42.4293 107.663 42.784 105.871 42.784C104.191 42.784 102.605 42.4667 101.111 41.832C99.6552 41.1973 98.3672 40.264 97.2472 39.032C96.1272 37.8 95.2312 36.3067 94.5592 34.552C93.9245 32.7973 93.6072 30.8 93.6072 28.56V27.664C93.6072 25.4613 93.9245 23.4827 94.5592 21.728C95.1939 19.9733 96.0525 18.48 97.1352 17.248C98.2179 16.016 99.4685 15.0827 100.887 14.448C102.343 13.776 103.893 13.44 105.535 13.44C107.514 13.44 109.101 13.776 110.295 14.448C111.527 15.12 112.498 16.1653 113.207 17.584H114.215V14.224H121.271V33.6C121.271 34.72 121.775 35.28 122.783 35.28H123.847V42H119.031C117.762 42 116.717 41.6267 115.895 40.88C115.111 40.1333 114.719 39.1627 114.719 37.968H113.711ZM107.439 36.064C109.493 36.064 111.135 35.392 112.367 34.048C113.599 32.6667 114.215 30.8 114.215 28.448V27.776C114.215 25.424 113.599 23.576 112.367 22.232C111.135 20.8507 109.493 20.16 107.439 20.16C105.386 20.16 103.743 20.8507 102.511 22.232C101.279 23.576 100.663 25.424 100.663 27.776V28.448C100.663 30.8 101.279 32.6667 102.511 34.048C103.743 35.392 105.386 36.064 107.439 36.064ZM126.74 14.224H134.972V2.8H142.028V14.224H152.052V20.944H142.028V33.6C142.028 34.72 142.532 35.28 143.54 35.28H151.044V42H139.284C138.015 42 136.97 41.5893 136.148 40.768C135.364 39.9467 134.972 38.9013 134.972 37.632V20.944H126.74V14.224ZM159.817 35.28H169.225V20.944H160.489V14.224H176.281V35.28H184.345V42H159.817V35.28ZM178.017 5.992C178.017 6.73867 177.868 7.448 177.569 8.12C177.308 8.75467 176.935 9.31467 176.449 9.8C175.964 10.248 175.385 10.6213 174.713 10.92C174.079 11.1813 173.407 11.312 172.697 11.312C171.951 11.312 171.26 11.1813 170.625 10.92C169.991 10.6213 169.431 10.248 168.945 9.8C168.46 9.31467 168.068 8.75467 167.769 8.12C167.508 7.448 167.377 6.73867 167.377 5.992C167.377 5.24533 167.508 4.55466 167.769 3.92C168.068 3.248 168.46 2.688 168.945 2.24C169.431 1.75466 169.991 1.38133 170.625 1.12C171.26 0.821332 171.951 0.671998 172.697 0.671998C173.407 0.671998 174.079 0.821332 174.713 1.12C175.385 1.38133 175.964 1.75466 176.449 2.24C176.935 2.688 177.308 3.248 177.569 3.92C177.868 4.55466 178.017 5.24533 178.017 5.992ZM218.318 28.448C218.318 30.7627 217.926 32.816 217.142 34.608C216.358 36.3627 215.294 37.856 213.95 39.088C212.606 40.2827 211.057 41.1973 209.302 41.832C207.585 42.4667 205.774 42.784 203.87 42.784C201.966 42.784 200.137 42.4667 198.382 41.832C196.665 41.1973 195.134 40.2827 193.79 39.088C192.446 37.856 191.382 36.3627 190.598 34.608C189.814 32.816 189.422 30.7627 189.422 28.448V27.776C189.422 25.4987 189.814 23.4827 190.598 21.728C191.382 19.936 192.446 18.424 193.79 17.192C195.134 15.96 196.665 15.0267 198.382 14.392C200.137 13.7573 201.966 13.44 203.87 13.44C205.774 13.44 207.585 13.7573 209.302 14.392C211.057 15.0267 212.606 15.96 213.95 17.192C215.294 18.424 216.358 19.936 217.142 21.728C217.926 23.4827 218.318 25.4987 218.318 27.776V28.448ZM203.87 36.064C204.878 36.064 205.83 35.896 206.726 35.56C207.622 35.224 208.406 34.7387 209.078 34.104C209.75 33.4693 210.273 32.704 210.646 31.808C211.057 30.8747 211.262 29.8293 211.262 28.672V27.552C211.262 26.3947 211.057 25.368 210.646 24.472C210.273 23.5387 209.75 22.7547 209.078 22.12C208.406 21.4853 207.622 21 206.726 20.664C205.83 20.328 204.878 20.16 203.87 20.16C202.862 20.16 201.91 20.328 201.014 20.664C200.118 21 199.334 21.4853 198.662 22.12C197.99 22.7547 197.449 23.5387 197.038 24.472C196.665 25.368 196.478 26.3947 196.478 27.552V28.672C196.478 29.8293 196.665 30.8747 197.038 31.808C197.449 32.704 197.99 33.4693 198.662 34.104C199.334 34.7387 200.118 35.224 201.014 35.56C201.91 35.896 202.862 36.064 203.87 36.064ZM229.947 42H222.891V14.224H229.947V18.368H230.955C231.59 16.8 232.617 15.5867 234.035 14.728C235.454 13.8693 237.115 13.44 239.019 13.44C240.363 13.44 241.614 13.664 242.771 14.112C243.966 14.5227 245.011 15.176 245.907 16.072C246.803 16.968 247.494 18.1067 247.979 19.488C248.502 20.8693 248.763 22.512 248.763 24.416V42H241.707V26.208C241.707 24.2293 241.222 22.68 240.251 21.56C239.318 20.4027 237.955 19.824 236.163 19.824C234.073 19.824 232.505 20.5333 231.459 21.952C230.451 23.3333 229.947 25.2 229.947 27.552V42ZM263.529 22.064C263.529 22.96 263.995 23.6133 264.929 24.024C265.862 24.3973 267.561 24.7147 270.025 24.976C272.862 25.2747 275.177 26.1333 276.969 27.552C278.761 28.9333 279.657 30.8747 279.657 33.376V33.712C279.657 36.4747 278.649 38.6773 276.633 40.32C274.617 41.9627 271.779 42.784 268.121 42.784C265.955 42.784 264.107 42.504 262.577 41.944C261.046 41.384 259.777 40.6933 258.769 39.872C257.761 39.0133 256.977 38.08 256.417 37.072C255.894 36.0267 255.539 35.0187 255.353 34.048L261.849 31.92C262.147 33.1147 262.763 34.16 263.697 35.056C264.667 35.952 266.142 36.4 268.121 36.4C269.875 36.4 271.07 36.1387 271.705 35.616C272.377 35.056 272.713 34.4587 272.713 33.824C272.713 33.4507 272.619 33.1147 272.433 32.816C272.283 32.48 271.985 32.1813 271.537 31.92C271.089 31.6213 270.473 31.3787 269.689 31.192C268.942 31.0053 267.99 30.856 266.833 30.744C263.697 30.4827 261.195 29.68 259.329 28.336C257.499 26.9547 256.585 24.9387 256.585 22.288V21.952C256.585 20.5707 256.883 19.3573 257.481 18.312C258.078 17.2667 258.862 16.3893 259.833 15.68C260.803 14.9333 261.923 14.3733 263.193 14C264.462 13.6267 265.769 13.44 267.113 13.44C268.867 13.44 270.379 13.664 271.649 14.112C272.955 14.5227 274.057 15.0827 274.953 15.792C275.849 16.464 276.577 17.2293 277.137 18.088C277.697 18.9093 278.126 19.712 278.425 20.496L272.041 23.072C271.705 22.064 271.126 21.28 270.305 20.72C269.483 20.1227 268.419 19.824 267.113 19.824C265.918 19.824 265.022 20.048 264.425 20.496C263.827 20.9067 263.529 21.4293 263.529 22.064Z" fill="white"/>
</svg>
